<svg width="24" height="24" viewBox="0 0 24 24" fill="none" xmlns="http://www.w3.org/2000/svg">
<g clip-path="url(#clip0_31_443)">
<path d="M21.1076 0.965796C21.6919 1.18793 22.2231 1.53079 22.6658 1.97022C23.1084 2.41127 23.4545 2.93924 23.6815 3.52193C23.9084 4.10302 24.0114 4.72757 23.9825 5.3505V8.98833H18.5418L16.1724 4.8998H7.82956L3.70722 12.0258L7.74585 19.1517H16.0887L18.4581 15.0632H23.8988V18.701C23.9197 19.3127 23.8151 19.9227 23.5897 20.4942C23.3644 21.064 23.0247 21.5823 22.5917 22.0153C22.1571 22.4483 21.6404 22.7879 21.069 23.0133C20.4992 23.2386 19.8891 23.3433 19.2758 23.3223H4.65853C4.04525 23.3433 3.43358 23.2386 2.86376 23.0133C2.29233 22.7895 1.77241 22.4499 1.33781 22.0169C0.903198 21.5823 0.561951 21.0656 0.334989 20.4958C0.108027 19.9244 0.00179003 19.3143 0.0194963 18.701V5.3505C-0.00625826 4.73401 0.0967598 4.11751 0.320502 3.54125C0.544245 2.96499 0.883883 2.44024 1.3201 2.00242C1.75471 1.56298 2.27624 1.22012 2.85088 0.991551C3.42553 0.764589 4.04042 0.656742 4.65853 0.679277H19.2758C19.9004 0.645474 20.5249 0.743664 21.1076 0.965796Z" fill="black"/>
<path d="M9.78212 8.28812H14.1202L16.29 12.0257L14.1202 15.7634H9.78212L7.6123 12.0257L9.78212 8.28812Z" fill="#FF5200"/>
</g>
<defs>
<clipPath id="clip0_31_443">
<rect width="24" height="22.664" fill="white" transform="translate(0 0.668007)"/>
</clipPath>
</defs>
</svg>
