<svg width="16" height="16" viewBox="0 0 16 16" fill="none" xmlns="http://www.w3.org/2000/svg">
<path d="M11.3335 8.93332V10.9333C11.3335 13.6 10.2668 14.6667 7.60016 14.6667H5.06683C2.40016 14.6667 1.3335 13.6 1.3335 10.9333V8.39999C1.3335 5.73332 2.40016 4.66666 5.06683 4.66666H7.06683" stroke="#ABABAB" stroke-width="1.5" stroke-linecap="round" stroke-linejoin="round"/>
<path d="M11.3336 8.93332H9.20023C7.60023 8.93332 7.06689 8.39999 7.06689 6.79999V4.66666L11.3336 8.93332Z" stroke="#ABABAB" stroke-width="1.5" stroke-linecap="round" stroke-linejoin="round"/>
<path d="M7.7334 1.33334H10.4001" stroke="#ABABAB" stroke-width="1.5" stroke-linecap="round" stroke-linejoin="round"/>
<path d="M4.6665 3.33334C4.6665 2.22668 5.55984 1.33334 6.6665 1.33334H8.41317" stroke="#ABABAB" stroke-width="1.5" stroke-linecap="round" stroke-linejoin="round"/>
<path d="M14.6668 5.33334V9.46001C14.6668 10.4933 13.8268 11.3333 12.7935 11.3333" stroke="#ABABAB" stroke-width="1.5" stroke-linecap="round" stroke-linejoin="round"/>
<path d="M14.6665 5.33334H12.6665C11.1665 5.33334 10.6665 4.83334 10.6665 3.33334V1.33334L14.6665 5.33334Z" stroke="#ABABAB" stroke-width="1.5" stroke-linecap="round" stroke-linejoin="round"/>
</svg>
