<svg width="24" height="24" viewBox="0 0 24 24" fill="none" xmlns="http://www.w3.org/2000/svg">
<path d="M1.10605 16.9125L13.5936 11.7188L7.3123 8.00625C7.3123 8.00625 6.7498 7.6875 5.86855 7.575C2.6248 7.65 0.0185547 10.2938 0.0185547 13.5563C0.0185547 14.85 0.431055 16.05 1.1248 17.025L1.10605 16.9125Z" fill="#0078D4"/>
<path d="M23.1375 17.4C23.6625 16.6125 23.9813 15.675 23.9813 14.6625C23.9813 12.075 21.9563 9.975 19.425 9.80625C19.425 9.7875 19.425 9.76875 19.4063 9.75C18.5063 9.65625 17.6813 10.0125 17.6813 10.0125L13.5938 11.7188L23.1375 17.4Z" fill="#1490DF"/>
<path d="M13.5937 11.7375L17.6812 10.0312C17.6812 10.0312 18.5249 9.675 19.4062 9.76875C18.6187 6.54375 15.6937 4.125 12.2249 4.125C9.5999 4.125 7.29365 5.49375 5.9624 7.55625H5.86865C6.76865 7.66875 7.3124 7.9875 7.3124 7.9875L13.5937 11.7375Z" fill="#0364B8"/>
<path d="M13.6125 11.7375L1.125 16.9125L1.14375 17.025C2.23125 18.5438 4.0125 19.5375 6.01875 19.5375C6.20625 19.5375 6.39375 19.5187 6.58125 19.5187H19.3688C20.9438 19.4437 22.3312 18.6188 23.1562 17.4L13.6125 11.7375Z" fill="#28A8EA"/>
</svg>
