<svg width="24" height="24" viewBox="0 0 24 24" fill="none" xmlns="http://www.w3.org/2000/svg">
<g clip-path="url(#clip0_30_387)">
<path d="M22.5371 4.275H6.41211V1.70625C6.41211 1.275 6.74961 0.9375 7.16211 0.9375H21.7684C22.1996 0.9375 22.5371 1.275 22.5371 1.70625V4.275Z" fill="#0464B8"/>
<path d="M6.41211 4.275H11.7934V9.2625H6.41211V4.275Z" fill="#0377D4"/>
<path d="M11.7935 4.275H17.1747V9.2625H11.7935V4.275Z" fill="#29A7EB"/>
<path d="M17.1748 4.275H22.5561V9.2625H17.1748V4.275Z" fill="#4FD8FF"/>
<path d="M6.41211 9.2625H11.7934V14.25H6.41211V9.2625Z" fill="#1681D7"/>
<path d="M11.7935 9.2625H17.1747V14.25H11.7935V9.2625Z" fill="#0178D4"/>
<path d="M17.1748 9.2625H22.5561V14.25H17.1748V9.2625Z" fill="#29A7EB"/>
<path d="M11.7935 14.2313H17.1747V19.2188H11.7935V14.2313Z" fill="#0464B8"/>
<path d="M17.1748 14.2313H22.5561V19.2188H17.1748V14.2313Z" fill="#1681D7"/>
<path d="M23.7937 12.9563L22.5562 13.6875V11.5875L23.7749 12.2625C24.0562 12.3938 24.0562 12.7875 23.7937 12.9563Z" fill="#042071"/>
<path d="M23.7935 12.9563L23.681 13.0313L23.5497 13.1063L22.556 13.6875V13.6688L5.98096 23.1563H22.6872C23.3997 23.1563 23.9622 22.575 23.9622 21.8813L23.981 12.6188C23.9997 12.7313 23.9247 12.8813 23.7935 12.9563Z" fill="#168FDE"/>
<path d="M22.875 23.1562H6.15C5.4375 23.1562 4.875 22.575 4.875 21.8812V12.8438L22.875 23.1562Z" fill="#29A7EB"/>
<path d="M11.0623 18.0938H1.1248C0.468555 18.0938 -0.0751953 17.55 -0.0751953 16.8937V7.10625C-0.0751953 6.45 0.468555 5.90625 1.1248 5.90625H11.0623C11.7186 5.90625 12.2623 6.45 12.2623 7.10625V16.8937C12.2623 17.55 11.7373 18.0938 11.0623 18.0938Z" fill="#1681D7"/>
<path d="M6.09336 15.5438C4.16211 15.5438 2.94336 14.0812 2.94336 12.1312C2.94336 10.0687 4.27461 8.60625 6.18711 8.60625C8.17461 8.60625 9.33711 10.0875 9.33711 12C9.35586 14.2688 7.96836 15.5438 6.09336 15.5438ZM6.16836 14.5687C7.36836 14.5687 8.04336 13.4625 8.04336 12.0563C8.04336 10.7813 7.40586 9.6 6.16836 9.6C4.93086 9.6 4.27461 10.7625 4.27461 12.1125C4.27461 13.4625 4.94961 14.5687 6.16836 14.5687Z" fill="white"/>
<path d="M12.2812 6.99375V16.8938C12.2812 17.55 11.7375 18.0938 11.0812 18.0938H4.875V19.1625H12.075C12.7313 19.1625 13.275 18.6188 13.275 17.9625V8.175C13.275 7.575 12.8438 7.06875 12.2812 6.99375Z" fill="black" fill-opacity="0.12549"/>
</g>
<defs>
<clipPath id="clip0_30_387">
<rect width="24" height="24" fill="white"/>
</clipPath>
</defs>
</svg>
