<svg width="24" height="24" viewBox="0 0 24 24" fill="none" xmlns="http://www.w3.org/2000/svg">
<g clip-path="url(#clip0_31_431)">
<path d="M11.9438 13.725C15.7442 13.725 18.825 10.6442 18.825 6.84375C18.825 3.04334 15.7442 -0.0374985 11.9438 -0.0374985C8.14334 -0.0374985 5.0625 3.04334 5.0625 6.84375C5.0625 10.6442 8.14334 13.725 11.9438 13.725Z" fill="#036C70"/>
<path d="M17.681 19.4813C21.1914 19.4813 24.0372 16.6355 24.0372 13.125C24.0372 9.61454 21.1914 6.76875 17.681 6.76875C14.1705 6.76875 11.3247 9.61454 11.3247 13.125C11.3247 16.6355 14.1705 19.4813 17.681 19.4813Z" fill="#1A9BA1"/>
<path d="M12.8438 24.0188C15.5361 24.0188 17.7188 21.8361 17.7188 19.1438C17.7188 16.4514 15.5361 14.2688 12.8438 14.2688C10.1514 14.2688 7.96875 16.4514 7.96875 19.1438C7.96875 21.8361 10.1514 24.0188 12.8438 24.0188Z" fill="#37C6D0"/>
<path d="M11.1561 18.225H1.21855C0.562305 18.225 0.0185547 17.6812 0.0185547 17.025V7.2375C0.0185547 6.58125 0.562305 6.0375 1.21855 6.0375H11.1561C11.8123 6.0375 12.3561 6.58125 12.3561 7.2375V17.025C12.3561 17.6812 11.8311 18.225 11.1561 18.225Z" fill="#04878B"/>
<path d="M4.18115 14.2313C4.5749 14.4563 5.19365 14.6625 5.83115 14.6625C6.61865 14.6625 7.06865 14.2875 7.06865 13.7438C7.06865 13.2375 6.73115 12.9375 5.86865 12.6188C4.74365 12.225 4.0124 11.625 4.0124 10.6688C4.0124 9.5625 4.9499 8.7375 6.43115 8.7375C7.1624 8.7375 7.70615 8.90625 8.0624 9.075L7.7624 10.0688C7.51865 9.9375 7.0499 9.75 6.4124 9.75C5.6249 9.75 5.2874 10.1625 5.2874 10.5563C5.2874 11.0813 5.68115 11.3063 6.5999 11.6625C7.78115 12.1125 8.34365 12.6938 8.34365 13.65C8.34365 14.7375 7.51865 15.6563 5.75615 15.6563C5.0249 15.6563 4.2749 15.45 3.8999 15.2438L4.18115 14.2313Z" fill="white"/>
<path d="M12.3561 7.125V17.025C12.3561 17.6813 11.8123 18.225 11.1561 18.225H8.0248L7.9873 19.2938H12.1873C12.8436 19.2938 13.3873 18.75 13.3873 18.0938V8.30625C13.3686 7.70625 12.9373 7.21875 12.3561 7.125Z" fill="black" fill-opacity="0.12549"/>
</g>
<defs>
<clipPath id="clip0_31_431">
<rect width="24" height="24" fill="white"/>
</clipPath>
</defs>
</svg>
